<?xml version="1.0" encoding="utf-8"?>
<!-- Generator: Adobe Illustrator 15.1.0, SVG Export Plug-In . SVG Version: 6.00 Build 0)  -->
<!DOCTYPE svg PUBLIC "-//W3C//DTD SVG 1.1//EN" "http://www.w3.org/Graphics/SVG/1.1/DTD/svg11.dtd">
<svg version="1.1" id="Layer_1" xmlns="http://www.w3.org/2000/svg" xmlns:xlink="http://www.w3.org/1999/xlink" x="0px" y="0px"
	 width="100px" height="100px" viewBox="0 0 100 100" enable-background="new 0 0 100 100" xml:space="preserve">
<g display="none">
	<g display="inline">
		<path fill="#B0AFB0" d="M49.727,94.519c-11.514,0-20.881-9.368-20.881-20.882V26.364c0-11.514,9.367-20.882,20.881-20.882
			c11.515,0,20.882,9.368,20.882,20.882v47.273C70.608,85.15,61.241,94.519,49.727,94.519z M49.727,8.65
			c-9.767,0-17.713,7.946-17.713,17.713v47.273c0,9.767,7.946,17.714,17.713,17.714c9.768,0,17.713-7.947,17.713-17.714V26.364
			C67.439,16.597,59.494,8.65,49.727,8.65z"/>
	</g>
	<g display="inline">
		<path fill="#B0AFB0" d="M49.727,86.467c-7.021,0-12.732-5.712-12.732-12.732V26.267c0-7.021,5.712-12.733,12.732-12.733
			c7.021,0,12.733,5.712,12.733,12.733v47.468C62.46,80.755,56.748,86.467,49.727,86.467z M49.727,16.702
			c-5.273,0-9.564,4.291-9.564,9.564v47.468c0,5.273,4.291,9.563,9.564,9.563c5.274,0,9.564-4.29,9.564-9.563V26.267
			C59.291,20.993,55.001,16.702,49.727,16.702z"/>
	</g>
	<g display="inline">
		<path fill="#B0AFB0" d="M16.735,84.575c-0.405,0-0.811-0.154-1.12-0.463c-0.619-0.619-0.619-1.623,0-2.241l65.982-65.982
			c0.619-0.619,1.622-0.619,2.241,0c0.618,0.619,0.618,1.622,0,2.24L17.856,84.112C17.546,84.421,17.141,84.575,16.735,84.575z"/>
	</g>
	<g display="inline">
		<g>
			<path fill="#B0AFB0" d="M60.876,34.343H38.579c-0.875,0-1.584-0.709-1.584-1.584c0-0.875,0.709-1.584,1.584-1.584h22.297
				c0.874,0,1.584,0.709,1.584,1.584C62.46,33.633,61.75,34.343,60.876,34.343z"/>
		</g>
		<g>
			<path fill="#B0AFB0" d="M60.876,68.826H38.579c-0.875,0-1.584-0.71-1.584-1.585c0-0.874,0.709-1.584,1.584-1.584h22.297
				c0.874,0,1.584,0.71,1.584,1.584C62.46,68.116,61.75,68.826,60.876,68.826z"/>
		</g>
	</g>
</g>
<g>
	<g>
		<path fill="#B0AFB0" d="M1.828,86.004c-0.305,0-0.611-0.086-0.882-0.268c-0.729-0.486-0.924-1.474-0.437-2.203l47.479-71.01
			c0.292-0.437,0.782-0.701,1.308-0.705c0.003,0,0.008,0,0.012,0c0.521,0,1.009,0.255,1.306,0.684L99.68,83.515
			c0.499,0.722,0.318,1.71-0.403,2.208c-0.721,0.498-1.71,0.318-2.21-0.403L49.329,16.23L3.149,85.299
			C2.843,85.758,2.341,86.004,1.828,86.004z"/>
	</g>
	<g>
		<g>
			<path fill="#B0AFB0" d="M19.461,86.004c-0.876,0-1.588-0.711-1.588-1.587V59.186c0-0.879,0.711-1.589,1.588-1.589
				c0.877,0,1.588,0.71,1.588,1.589v25.231C21.049,85.293,20.338,86.004,19.461,86.004z"/>
		</g>
		<g>
			<path fill="#B0AFB0" d="M80.741,86.004c-0.876,0-1.587-0.711-1.587-1.587V59.186c0-0.879,0.711-1.589,1.587-1.589
				c0.877,0,1.589,0.71,1.589,1.589v25.231C82.33,85.293,81.618,86.004,80.741,86.004z"/>
		</g>
	</g>
	<g>
		<g>
			<path fill="#B0AFB0" d="M73.413,86.006c-0.677,0-1.305-0.438-1.516-1.119l-7.254-23.434L50.102,51.051L35.56,61.453
				l-7.254,23.434c-0.26,0.837-1.149,1.306-1.986,1.047c-0.838-0.259-1.308-1.148-1.048-1.987l7.412-23.943
				c0.102-0.331,0.311-0.62,0.593-0.821l15.901-11.374c0.553-0.396,1.295-0.396,1.848,0l15.901,11.374
				c0.281,0.201,0.49,0.49,0.592,0.821l7.412,23.943c0.26,0.839-0.209,1.729-1.046,1.987C73.728,85.981,73.568,86.006,73.413,86.006
				z"/>
		</g>
		<g>
			<path fill="#B0AFB0" d="M30.381,74.402c-0.647,0-1.255-0.397-1.491-1.04c-0.303-0.823,0.119-1.735,0.942-2.037
				c11.533-4.239,18.695-12.755,18.695-22.227c0-0.877,0.711-1.588,1.588-1.588c0.877,0,1.589,0.711,1.589,1.588
				c0,5.415-2.028,10.664-5.862,15.181c-3.67,4.322-8.827,7.789-14.915,10.025C30.747,74.372,30.562,74.402,30.381,74.402z"/>
		</g>
	</g>
</g>
</svg>
