<?xml version="1.0" encoding="utf-8"?>
<!-- Generator: Adobe Illustrator 15.1.0, SVG Export Plug-In . SVG Version: 6.00 Build 0)  -->
<!DOCTYPE svg PUBLIC "-//W3C//DTD SVG 1.1//EN" "http://www.w3.org/Graphics/SVG/1.1/DTD/svg11.dtd">
<svg version="1.1" id="Layer_1" xmlns="http://www.w3.org/2000/svg" xmlns:xlink="http://www.w3.org/1999/xlink" x="0px" y="0px"
	 width="100px" height="100px" viewBox="0 0 100 100" enable-background="new 0 0 100 100" xml:space="preserve">
<g id="RAFT" display="none">
	<g display="inline">
		<path fill="#B0AFB0" d="M49.727,94.519c-11.514,0-20.881-9.368-20.881-20.882V26.364c0-11.514,9.367-20.882,20.881-20.882
			c11.515,0,20.882,9.368,20.882,20.882v47.273C70.608,85.15,61.241,94.519,49.727,94.519z M49.727,8.65
			c-9.767,0-17.713,7.946-17.713,17.713v47.273c0,9.767,7.946,17.714,17.713,17.714c9.768,0,17.713-7.947,17.713-17.714V26.364
			C67.439,16.597,59.494,8.65,49.727,8.65z"/>
	</g>
	<g display="inline">
		<path fill="#B0AFB0" d="M49.727,86.467c-7.021,0-12.732-5.712-12.732-12.732V26.267c0-7.021,5.712-12.733,12.732-12.733
			c7.021,0,12.733,5.712,12.733,12.733v47.468C62.46,80.755,56.748,86.467,49.727,86.467z M49.727,16.702
			c-5.273,0-9.564,4.291-9.564,9.564v47.468c0,5.273,4.291,9.563,9.564,9.563c5.274,0,9.564-4.29,9.564-9.563V26.267
			C59.291,20.993,55.001,16.702,49.727,16.702z"/>
	</g>
	<g display="inline">
		<path fill="#B0AFB0" d="M16.735,84.575c-0.405,0-0.811-0.154-1.12-0.463c-0.619-0.619-0.619-1.623,0-2.241l65.982-65.982
			c0.619-0.619,1.622-0.619,2.241,0c0.618,0.619,0.618,1.622,0,2.24L17.856,84.112C17.546,84.421,17.141,84.575,16.735,84.575z"/>
	</g>
	<g display="inline">
		<g>
			<path fill="#B0AFB0" d="M60.876,34.343H38.579c-0.875,0-1.584-0.709-1.584-1.584c0-0.875,0.709-1.584,1.584-1.584h22.297
				c0.874,0,1.584,0.709,1.584,1.584C62.46,33.633,61.75,34.343,60.876,34.343z"/>
		</g>
		<g>
			<path fill="#B0AFB0" d="M60.876,68.826H38.579c-0.875,0-1.584-0.71-1.584-1.585c0-0.874,0.709-1.584,1.584-1.584h22.297
				c0.874,0,1.584,0.71,1.584,1.584C62.46,68.116,61.75,68.826,60.876,68.826z"/>
		</g>
	</g>
</g>
<g id="BASECAMP" display="none">
	<g display="inline">
		<path fill="#B0AFB0" d="M1.828,86.004c-0.305,0-0.611-0.086-0.882-0.268c-0.729-0.486-0.924-1.474-0.437-2.203l47.479-71.01
			c0.292-0.437,0.782-0.701,1.308-0.705c0.003,0,0.008,0,0.012,0c0.521,0,1.009,0.255,1.306,0.684L99.68,83.515
			c0.499,0.722,0.318,1.71-0.403,2.208c-0.721,0.498-1.71,0.318-2.21-0.403L49.329,16.23L3.149,85.299
			C2.843,85.758,2.341,86.004,1.828,86.004z"/>
	</g>
	<g display="inline">
		<g>
			<path fill="#B0AFB0" d="M19.461,86.004c-0.876,0-1.588-0.711-1.588-1.587V59.186c0-0.879,0.711-1.589,1.588-1.589
				c0.877,0,1.588,0.71,1.588,1.589v25.231C21.049,85.293,20.338,86.004,19.461,86.004z"/>
		</g>
		<g>
			<path fill="#B0AFB0" d="M80.741,86.004c-0.876,0-1.587-0.711-1.587-1.587V59.186c0-0.879,0.711-1.589,1.587-1.589
				c0.877,0,1.589,0.71,1.589,1.589v25.231C82.33,85.293,81.618,86.004,80.741,86.004z"/>
		</g>
	</g>
	<g display="inline">
		<g>
			<path fill="#B0AFB0" d="M73.413,86.006c-0.677,0-1.305-0.438-1.516-1.119l-7.254-23.434L50.102,51.051L35.56,61.453
				l-7.254,23.434c-0.26,0.837-1.149,1.306-1.986,1.047c-0.838-0.259-1.308-1.148-1.048-1.987l7.412-23.943
				c0.102-0.331,0.311-0.62,0.593-0.821l15.901-11.374c0.553-0.396,1.295-0.396,1.848,0l15.901,11.374
				c0.281,0.201,0.49,0.49,0.592,0.821l7.412,23.943c0.26,0.839-0.209,1.729-1.046,1.987C73.728,85.981,73.568,86.006,73.413,86.006
				z"/>
		</g>
		<g>
			<path fill="#B0AFB0" d="M30.381,74.402c-0.647,0-1.255-0.397-1.491-1.04c-0.303-0.823,0.119-1.735,0.942-2.037
				c11.533-4.239,18.695-12.755,18.695-22.227c0-0.877,0.711-1.588,1.588-1.588c0.877,0,1.589,0.711,1.589,1.588
				c0,5.415-2.028,10.664-5.862,15.181c-3.67,4.322-8.827,7.789-14.915,10.025C30.747,74.372,30.562,74.402,30.381,74.402z"/>
		</g>
	</g>
</g>
<g id="HIKING" display="none">
	<g display="inline">
		<g>
			<path fill="#B0AFB0" d="M46.245,89.398H10.043c-0.821,0-1.486-0.665-1.486-1.485c0-0.821,0.665-1.486,1.486-1.486H44.76V14.796
				H11.528v45.467c0,0.82-0.665,1.485-1.485,1.485c-0.821,0-1.486-0.665-1.486-1.485V13.31c0-0.821,0.665-1.486,1.486-1.486h36.202
				c0.821,0,1.486,0.665,1.486,1.486v74.603C47.731,88.733,47.066,89.398,46.245,89.398z"/>
		</g>
		<g>
			<path fill="#B0AFB0" d="M10.105,89.398C4.533,89.398,0,84.865,0,79.294V68.881c0-5.571,4.533-10.104,10.105-10.104
				c0.82,0,1.485,0.665,1.485,1.486c0,0.82-0.665,1.485-1.485,1.485c-3.934,0-7.134,3.2-7.134,7.133v10.413
				c0,3.933,3.2,7.133,7.134,7.133c0.82,0,1.485,0.665,1.485,1.486C11.591,88.733,10.926,89.398,10.105,89.398z"/>
		</g>
		<g>
			<path fill="#B0AFB0" d="M45.858,61.748H10.105c-0.821,0-1.486-0.665-1.486-1.485c0-0.821,0.665-1.486,1.486-1.486h35.753
				c0.821,0,1.485,0.665,1.485,1.486C47.344,61.083,46.68,61.748,45.858,61.748z"/>
		</g>
		<g>
			<g>
				<path fill="#B0AFB0" d="M17.482,53.634c-0.492,0-0.973-0.244-1.256-0.69c-0.439-0.693-0.234-1.611,0.459-2.05L38.01,37.37
					c0.693-0.439,1.611-0.234,2.051,0.459s0.234,1.611-0.459,2.051L18.277,53.403C18.031,53.56,17.755,53.634,17.482,53.634z"/>
			</g>
			<g>
				<path fill="#B0AFB0" d="M38.805,53.634c-0.271,0-0.547-0.074-0.795-0.23L16.686,39.88c-0.693-0.439-0.898-1.357-0.459-2.051
					c0.439-0.693,1.357-0.898,2.051-0.459l21.324,13.523c0.693,0.439,0.898,1.357,0.459,2.05
					C39.778,53.39,39.297,53.634,38.805,53.634z"/>
			</g>
			<g>
				<path fill="#B0AFB0" d="M17.482,39.962c-0.492,0-0.973-0.244-1.256-0.69c-0.439-0.693-0.234-1.611,0.459-2.051L38.01,23.698
					c0.693-0.439,1.611-0.234,2.051,0.459c0.439,0.693,0.234,1.611-0.459,2.051L18.277,39.731
					C18.031,39.888,17.755,39.962,17.482,39.962z"/>
			</g>
			<g>
				<path fill="#B0AFB0" d="M38.805,39.962c-0.271,0-0.547-0.075-0.795-0.231L16.686,26.208c-0.693-0.439-0.898-1.358-0.459-2.051
					c0.439-0.693,1.357-0.898,2.051-0.459l21.324,13.523c0.693,0.44,0.898,1.358,0.459,2.051
					C39.778,39.718,39.297,39.962,38.805,39.962z"/>
			</g>
		</g>
		<g>
			<path fill="#B0AFB0" d="M45.858,80.825H1.486C0.665,80.825,0,80.16,0,79.339c0-0.82,0.665-1.485,1.486-1.485h44.372
				c0.821,0,1.485,0.665,1.485,1.485C47.344,80.16,46.68,80.825,45.858,80.825z"/>
		</g>
		<g>
			<path fill="#B0AFB0" d="M12.676,89.398c-0.82,0-1.486-0.665-1.486-1.485v-8.574c0-0.82,0.666-1.485,1.486-1.485
				s1.486,0.665,1.486,1.485v8.574C14.162,88.733,13.496,89.398,12.676,89.398z"/>
		</g>
		<g>
			<path fill="#B0AFB0" d="M23.865,89.398c-0.82,0-1.485-0.665-1.485-1.485v-8.574c0-0.82,0.665-1.485,1.485-1.485
				c0.821,0,1.486,0.665,1.486,1.485v8.574C25.352,88.733,24.687,89.398,23.865,89.398z"/>
		</g>
		<g>
			<path fill="#B0AFB0" d="M35.055,89.398c-0.82,0-1.485-0.665-1.485-1.485v-8.574c0-0.82,0.665-1.485,1.485-1.485
				c0.821,0,1.486,0.665,1.486,1.485v8.574C36.541,88.733,35.876,89.398,35.055,89.398z"/>
		</g>
		<g>
			<path fill="#B0AFB0" d="M27.982,21.078c-5.465,0-10.729-2.3-14.445-6.312c-0.558-0.602-0.521-1.542,0.08-2.1
				s1.543-0.521,2.1,0.081c3.156,3.406,7.627,5.36,12.266,5.36s9.108-1.954,12.264-5.36c0.558-0.603,1.498-0.638,2.1-0.081
				c0.603,0.558,0.639,1.498,0.08,2.1C38.711,18.777,33.445,21.078,27.982,21.078z"/>
		</g>
	</g>
	<g display="inline">
		<g>
			<path fill="#B0AFB0" d="M89.995,89.398H53.792c-0.82,0-1.486-0.665-1.486-1.485V13.31c0-0.821,0.666-1.486,1.486-1.486h36.203
				c0.82,0,1.486,0.665,1.486,1.486v46.953c0,0.82-0.666,1.485-1.486,1.485s-1.486-0.665-1.486-1.485V14.796h-33.23v71.631h34.717
				c0.82,0,1.486,0.665,1.486,1.486C91.481,88.733,90.815,89.398,89.995,89.398z"/>
		</g>
		<g>
			<path fill="#B0AFB0" d="M89.933,89.398c-0.822,0-1.486-0.665-1.486-1.485c0-0.821,0.664-1.486,1.486-1.486
				c3.932,0,7.133-3.2,7.133-7.133V68.881c0-3.933-3.201-7.133-7.133-7.133c-0.822,0-1.486-0.665-1.486-1.485
				c0-0.821,0.664-1.486,1.486-1.486c5.57,0,10.104,4.533,10.104,10.104v10.413C100.036,84.865,95.503,89.398,89.933,89.398z"/>
		</g>
		<g>
			<path fill="#B0AFB0" d="M89.933,61.748H54.179c-0.82,0-1.486-0.665-1.486-1.485c0-0.821,0.666-1.486,1.486-1.486h35.754
				c0.82,0,1.484,0.665,1.484,1.486C91.417,61.083,90.753,61.748,89.933,61.748z"/>
		</g>
		<g>
			<g>
				<path fill="#B0AFB0" d="M82.554,53.634c-0.271,0-0.547-0.074-0.795-0.23L60.435,39.88c-0.693-0.439-0.898-1.357-0.459-2.051
					c0.439-0.693,1.357-0.899,2.051-0.459l21.324,13.523c0.693,0.439,0.898,1.357,0.459,2.05
					C83.528,53.39,83.046,53.634,82.554,53.634z"/>
			</g>
			<g>
				<path fill="#B0AFB0" d="M61.231,53.634c-0.492,0-0.973-0.244-1.256-0.69c-0.439-0.693-0.234-1.611,0.459-2.05L81.759,37.37
					c0.693-0.439,1.611-0.234,2.051,0.459c0.439,0.693,0.234,1.611-0.459,2.051L62.026,53.403
					C61.78,53.56,61.505,53.634,61.231,53.634z"/>
			</g>
			<g>
				<path fill="#B0AFB0" d="M82.554,39.962c-0.271,0-0.547-0.075-0.795-0.231L60.435,26.208c-0.693-0.439-0.898-1.358-0.459-2.051
					s1.357-0.898,2.051-0.459l21.324,13.523c0.693,0.44,0.898,1.358,0.459,2.051C83.528,39.718,83.046,39.962,82.554,39.962z"/>
			</g>
			<g>
				<path fill="#B0AFB0" d="M61.231,39.962c-0.492,0-0.973-0.244-1.256-0.69c-0.439-0.693-0.234-1.611,0.459-2.051l21.324-13.523
					c0.693-0.439,1.611-0.233,2.051,0.459s0.234,1.611-0.459,2.051L62.026,39.731C61.78,39.888,61.505,39.962,61.231,39.962z"/>
			</g>
		</g>
		<g>
			<path fill="#B0AFB0" d="M98.552,80.825H54.179c-0.82,0-1.486-0.665-1.486-1.486c0-0.82,0.666-1.485,1.486-1.485h44.373
				c0.82,0,1.484,0.665,1.484,1.485C100.036,80.16,99.372,80.825,98.552,80.825z"/>
		</g>
		<g>
			<path fill="#B0AFB0" d="M87.36,89.398c-0.82,0-1.484-0.665-1.484-1.485v-8.574c0-0.82,0.664-1.485,1.484-1.485
				c0.822,0,1.486,0.665,1.486,1.485v8.574C88.847,88.733,88.183,89.398,87.36,89.398z"/>
		</g>
		<g>
			<path fill="#B0AFB0" d="M76.171,89.398c-0.82,0-1.486-0.665-1.486-1.485v-8.574c0-0.82,0.666-1.485,1.486-1.485
				s1.486,0.665,1.486,1.485v8.574C77.657,88.733,76.991,89.398,76.171,89.398z"/>
		</g>
		<g>
			<path fill="#B0AFB0" d="M64.981,89.398c-0.82,0-1.486-0.665-1.486-1.485v-8.574c0-0.82,0.666-1.485,1.486-1.485
				s1.486,0.665,1.486,1.485v8.574C66.468,88.733,65.802,89.398,64.981,89.398z"/>
		</g>
		<g>
			<path fill="#B0AFB0" d="M72.056,21.078c-5.465,0-10.729-2.3-14.445-6.312c-0.559-0.602-0.521-1.542,0.08-2.1
				s1.543-0.521,2.1,0.081c3.156,3.406,7.627,5.36,12.266,5.36s9.107-1.954,12.264-5.36c0.559-0.602,1.498-0.638,2.1-0.08
				c0.604,0.558,0.639,1.498,0.08,2.1C82.784,18.777,77.519,21.078,72.056,21.078z"/>
		</g>
	</g>
</g>
<g id="CANOE" display="none">
	<g display="inline">
		<g>
			<path fill="#B0AFB0" d="M50.019,98.741c-4.132,0-7.498-5.014-10.007-14.901c-2.259-8.902-3.503-20.71-3.503-33.248
				s1.244-24.346,3.503-33.248c2.509-9.888,5.875-14.901,10.007-14.901c4.131,0,7.498,5.014,10.007,14.901
				c2.259,8.902,3.503,20.71,3.503,33.248s-1.244,24.346-3.503,33.248C57.517,93.728,54.149,98.741,50.019,98.741z M50.019,5.906
				c-1.629,0-4.348,3.219-6.649,12.29c-2.19,8.632-3.396,20.137-3.396,32.396s1.207,23.764,3.396,32.396
				c2.302,9.07,5.02,12.289,6.649,12.289c1.629,0,4.349-3.219,6.649-12.289c2.19-8.633,3.396-20.138,3.396-32.396
				s-1.205-23.764-3.396-32.396C54.367,9.125,51.647,5.906,50.019,5.906z"/>
		</g>
		<g>
			<path fill="#B0AFB0" d="M19.146,83.196c-0.443,0-0.886-0.168-1.225-0.507c-0.676-0.677-0.676-1.773,0-2.449l61.746-61.746
				c0.677-0.676,1.772-0.676,2.449,0c0.677,0.677,0.677,1.773,0,2.449L20.37,82.689C20.032,83.028,19.589,83.196,19.146,83.196z"/>
		</g>
	</g>
	<g display="inline">
		<path fill="#B0AFB0" d="M61.796,52.324H38.241c-0.956,0-1.732-0.775-1.732-1.732c0-0.957,0.776-1.732,1.732-1.732h23.555
			c0.957,0,1.732,0.775,1.732,1.732C63.528,51.549,62.753,52.324,61.796,52.324z"/>
	</g>
</g>
<g id="CAMERA">
	<g>
		<path fill="#B0AFB0" d="M96.543,93.655H4.008c-1.179,0-2.138-0.959-2.138-2.139V15.365c0-1.179,0.959-2.139,2.138-2.139h31.494
			V8.972c0-1.074,0.87-1.944,1.944-1.944h25.66c1.073,0,1.943,0.87,1.943,1.944v4.254h31.494c1.179,0,2.138,0.959,2.138,2.139
			v76.152C98.681,92.696,97.722,93.655,96.543,93.655z M5.758,89.768h89.035V17.114H63.105c-1.073,0-1.944-0.87-1.944-1.944v-4.253
			H39.389v4.253c0,1.074-0.87,1.944-1.944,1.944H5.758V89.768z"/>
	</g>
	<g>
		<path fill="#B0AFB0" d="M50.275,82.229c-15.875,0-28.79-12.914-28.79-28.788c0-15.875,12.916-28.79,28.79-28.79
			c15.875,0,28.789,12.915,28.789,28.79C79.064,69.315,66.15,82.229,50.275,82.229z M50.275,28.539
			c-13.731,0-24.902,11.171-24.902,24.902c0,13.729,11.17,24.9,24.902,24.9c13.73,0,24.9-11.171,24.9-24.9
			C75.176,39.71,64.006,28.539,50.275,28.539z"/>
	</g>
	<g>
		<path fill="#B0AFB0" d="M50.275,71.15c-9.765,0-17.71-7.944-17.71-17.709c0-9.766,7.945-17.71,17.71-17.71
			c9.765,0,17.71,7.945,17.71,17.71C67.985,63.206,60.04,71.15,50.275,71.15z M50.275,39.619c-7.622,0-13.822,6.201-13.822,13.823
			c0,7.621,6.2,13.821,13.822,13.821c7.621,0,13.821-6.2,13.821-13.821C64.097,45.819,57.896,39.619,50.275,39.619z"/>
	</g>
	<g>
		<path fill="#B0AFB0" d="M84.215,33.278c-3.241,0-5.879-2.637-5.879-5.879c0-3.243,2.638-5.881,5.879-5.881
			c3.243,0,5.881,2.638,5.881,5.881C90.096,30.641,87.458,33.278,84.215,33.278z M84.215,25.406c-1.098,0-1.991,0.894-1.991,1.993
			c0,1.098,0.894,1.992,1.991,1.992c1.1,0,1.993-0.894,1.993-1.992C86.208,26.3,85.314,25.406,84.215,25.406z"/>
	</g>
	<g>
		<g>
			<path fill="#B0AFB0" d="M23.3,55.385H3.813c-1.074,0-1.944-0.871-1.944-1.943c0-1.074,0.87-1.945,1.944-1.945H23.3
				c1.073,0,1.943,0.871,1.943,1.945C25.243,54.514,24.373,55.385,23.3,55.385z"/>
		</g>
		<g>
			<path fill="#B0AFB0" d="M96.606,55.385H77.121c-1.074,0-1.945-0.871-1.945-1.943c0-1.074,0.871-1.945,1.945-1.945h19.485
				c1.073,0,1.943,0.871,1.943,1.945C98.55,54.514,97.68,55.385,96.606,55.385z"/>
		</g>
	</g>
</g>
</svg>
