<svg xmlns="http://www.w3.org/2000/svg" xmlns:xlink="http://www.w3.org/1999/xlink" version="1.1" id="Layer_1" x="0px" y="0px" viewBox="0 0 180 50" enable-background="new 0 0 180 50" xml:space="preserve" class="svg-raw text replaced-svg">
<g display="none">
	<g display="inline">
		<g>
			<g>
				<path fill="#FFFFFF" d="M8.5,26.2v0.7h3.2l4.1,7c0.5-0.1,1-0.2,1.5-0.2c0.7,0,1.3,0.2,1.9,0.3l0.2-0.3c-0.6-0.1-1-0.1-1.1-0.2      c-0.4-0.3-0.9-0.7-1.4-1.4c-0.5-0.7-1.2-1.9-1.9-3.4c-0.8-1.5-1.4-2.5-1.5-2.7c-0.6-1.1-1.2-2.2-1.8-3.6      c-0.6-1.3-1.2-2.6-1.7-3.8c-0.5-1.2-0.8-1.8-0.8-1.9l-0.6,0.1v3.6l2.8,5.8H8.5z"></path>
				<path fill="#FFFFFF" d="M8.5,20.5v-3.6l-2,0.2c0.1,0.1,0.2,0.2,0.3,0.3c0.1,0.1,0.2,0.3,0.3,0.4c0,0.1,0.1,0.3,0.1,0.5      c0.1,0.4-0.1,1.3-0.4,2.6c-0.4,1.3-0.9,2.6-1.6,4c-0.5,1.4-1.1,2.4-1.3,3c-0.3,0.7-0.5,1.2-0.8,1.8c-0.3,0.5-0.6,1.3-1,1.9      c-0.4,0.7-0.8,1.5-1.4,2.3L1,34c0.2,0,0.4,0,0.5,0s0.3,0,0.3,0c0.2,0,0.3,0,0.5,0c0.3,0,0.8,0.1,1.8,0.1l0.1-0.3l0,0H4.1H4      c-0.3-0.1-0.6-0.2-0.8-0.3C3.1,33.6,3,33.4,2.9,33C3,32.9,3,32.7,3,32.6l2.4-5.8h3v-0.7H5.7L8,19.2L8.5,20.5z"></path>
			</g>
		</g>
		<g>
			<g>
				<path fill="#FFFFFF" d="M27.6,25.1v1.2c0.1,0,0.1,0.1,0.2,0.1c0.3,0.1,1.1,1,2.1,2.6s1.9,2.8,2.9,3.8c0.8,0.9,1.8,1.4,2.8,1.4      c0.7,0,1.4-0.1,2.1-0.4v-0.3L37,33.6c-0.8-0.2-1.4-0.7-2.1-1.2c-0.6-0.7-1.2-1.4-1.7-2.2c-0.5-0.8-1-1.6-1.6-2.5      c-0.1-0.2-0.5-0.6-0.8-1c-0.4-0.5-0.7-0.8-0.8-1.1v-0.4c0.1-0.1,0.6-0.3,1.1-0.7c0.5-0.3,1.1-0.8,1.6-1.5      c0.5-0.6,0.7-1.4,0.7-2.2c-0.1-1.1-0.3-2-0.8-2.6c-0.5-0.5-1.2-0.9-1.9-1.1c-0.8-0.2-1.7-0.3-2.9-0.3v1.1      c2.5,0.1,3.9,1.5,3.9,4.2c0,1.3-0.4,2.1-1,2.4S29.3,25,28.5,25C28,25.1,27.8,25.1,27.6,25.1z"></path>
				<path fill="#FFFFFF" d="M27.6,17.9v-1.1c-0.1,0-0.1,0-0.1,0c-0.8,0-1.4,0-1.7,0c-0.3,0-0.6,0.1-0.8,0.1      c-0.8,0.3-1.9,0.5-2.8,0.5c-0.4,0-0.9-0.1-1.5-0.2l-0.2,0.3c0.5,0.1,0.8,0.3,1,0.6c0.3,0.3,0.4,0.7,0.4,1.2c0,0.8,0,2.1,0.1,3.5      c0.1,1.5,0.1,3,0.1,4.5c0.1,1.5,0.1,2.7,0.1,3.6c0,0.7,0.1,1.4,0.1,1.9c0,0.6,0,1,0,1.3l0.2,0.1c0.5-0.1,0.9-0.1,1.3-0.1      c0.1,0,0.6,0.1,1,0.1c0.5,0.1,0.7,0.1,0.7,0.1l0.2-0.3c-0.8,0-1.3-0.7-1.4-1.8L24,26.3l0,0l0,0c0.3,0,0.7-0.1,1-0.1s0.7,0,1.2,0      c0.7,0,1.2,0.1,1.6,0.2v-1.2c-2.1,0-3.5-0.1-3.9-0.4V18L27.6,17.9h-0.2C27.4,17.9,27.5,17.9,27.6,17.9z"></path>
			</g>
		</g>
		<path fill="#FFFFFF" d="M42.2,19.4l0.8-0.6c1.6-1.2,3.7-1.8,6.5-1.8c1,0,2,0.1,3.1,0.2c1,0.2,1.9,0.2,2.5,0.3l0.1,0.3    c-0.5,1-0.8,1.8-0.8,2.5L54,20.5c0-0.1-0.1-0.3-0.2-0.7c-0.1-0.3-0.2-0.5-0.4-0.7c-0.3-0.3-1-0.6-2.2-0.8C50,18.1,48.8,18,47.6,18    c-0.9,0-1.9,0.1-2.6,0.3c-0.8,0.2-1.4,0.5-2,1c-0.5,0.5-1,1.2-1.3,2c-0.3,0.9-0.5,2.1-0.5,3.6c0,2.1,0.4,3.7,1.1,4.8    c0.7,1.1,1.7,2,3,2.4c1.2,0.4,2.7,0.7,4.2,0.7c1.2,0.1,2.3-0.1,3.2-0.4c0.8-0.3,1.6-0.7,2.2-1.1c0.6-0.4,0.8-0.7,0.7-0.7l0.3,0.2    c-0.1,0.1-0.3,0.3-0.7,0.7c-0.4,0.4-0.9,0.9-1.6,1.3c-0.6,0.5-1.4,0.8-2.4,1.2c-0.9,0.3-1.9,0.4-3,0.4c-2.4-0.1-4.2-0.5-5.5-1.3    c-1.2-0.7-2.1-1.8-2.6-2.9c-0.4-1.2-0.7-2.8-0.8-4.8c-0.1-1.1,0.2-2.1,0.7-3.1C40.5,21.1,41.2,20.1,42.2,19.4L42.2,19.4z"></path>
		<path fill="#FFFFFF" d="M57.4,19.7l-0.2-0.1c0.4-0.8,0.7-1.7,0.7-2.5c1.3,0.1,3.5,0.2,6.2,0.2c3.4,0,6.6-0.1,9.7-0.2l0.1,0.2    c-0.4,0.8-0.7,1.6-0.7,2H73c0-0.6-0.2-1-0.6-1.1c-0.1,0-0.7-0.1-1.8-0.1C69.5,18,68.5,18,67.8,18c-1.1,0-1.8,0-1.8,0.1l0.2,12.8    c0,0.8,0.1,1.5,0.3,2c0.2,0.5,0.6,0.8,1.2,0.9L67.5,34c-0.6,0-1.4,0-2.1,0h-0.8l-0.1-0.2c0-1.9,0.1-4.6,0.1-7.8    c0-2.2-0.1-4.7-0.2-7.6c-0.2,0-0.5-0.1-0.8-0.1s-0.9,0-1.9,0c-1.4,0-2.4,0.1-3.2,0.2c-0.2,0.1-0.4,0.2-0.5,0.3    C57.9,19,57.7,19.3,57.4,19.7z"></path>
		<path fill="#FFFFFF" d="M76.4,17.3l0.1-0.3c0.4,0,0.7,0,0.8,0c0.3-0.1,0.6-0.1,1-0.1c0.5,0,0.8-0.1,1.2-0.1l0.3,0.3    c0,2.5,0,4.4-0.1,5.6c0.1,0.6,0.1,1.6,0.1,3c0.1,1.8,0.1,4.1,0.1,6.8c0,0.4,0.2,0.8,0.5,1c0.3,0.3,0.7,0.4,1.2,0.4L81.2,34    c-0.3,0-0.7-0.1-1-0.1c-0.5-0.1-0.8-0.2-0.9-0.2c-0.3,0-0.7,0.2-1.3,0.3l-0.1-0.2V20C77.9,18.3,77.4,17.5,76.4,17.3z"></path>
		<path fill="#FFFFFF" d="M86.6,19.4l0.8-0.6c1.6-1.2,3.7-1.8,6.5-1.8c1,0,2,0.1,3.1,0.2c1,0.2,1.9,0.2,2.5,0.3l0.1,0.3    c-0.5,1-0.8,1.8-0.8,2.5l-0.3,0.3c0-0.1-0.1-0.3-0.2-0.7c-0.1-0.3-0.2-0.5-0.4-0.7c-0.3-0.3-1-0.6-2.2-0.8s-2.4-0.3-3.6-0.3    c-0.9,0-1.9,0.1-2.6,0.3c-0.8,0.2-1.4,0.5-2,1c-0.5,0.5-1,1.2-1.3,2c-0.3,0.9-0.5,2.1-0.5,3.6c0,2.1,0.4,3.7,1.1,4.8    c0.7,1.1,1.7,2,3,2.4c1.2,0.4,2.7,0.7,4.2,0.7c1.2,0.1,2.3-0.1,3.2-0.4c0.8-0.3,1.6-0.7,2.2-1.1s0.8-0.7,0.7-0.7l0.3,0.2    c-0.1,0.1-0.3,0.3-0.7,0.7c-0.4,0.4-0.9,0.9-1.6,1.3c-0.6,0.5-1.4,0.8-2.4,1.2c-0.9,0.3-1.9,0.4-3,0.4c-2.4-0.1-4.2-0.5-5.5-1.3    c-1.2-0.7-2.1-1.8-2.6-2.9c-0.4-1.2-0.7-2.8-0.8-4.8c-0.1-1.1,0.2-2.1,0.7-3.1C84.9,21.1,85.6,20.1,86.6,19.4L86.6,19.4z"></path>
	</g>
	<g display="inline">
		<path fill="#FFFFFF" d="M124.3,20.1L124.3,20.1c-0.2,0.4-0.3,0.9-0.5,1.5s-0.4,1.2-0.6,1.6s-0.5,1.3-1,2.3    c-2.5,5.6-3.9,8.5-3.9,8.6l-0.3,0.2c-0.1-0.6-0.5-1.6-1-3.2s-1.3-3.6-2.4-5.9c-0.8-1.9-1.6-3.7-2.4-5.2s-1.2-2.4-1.4-2.5    c-0.1-0.1-0.3-0.2-0.7-0.3l0.2-0.3c0.3,0,0.7,0.1,1,0.1s0.5-0.1,0.7-0.1s0.4-0.1,0.8-0.2c1.2,2.4,2.4,4.9,3.4,7.5    c1.1,2.6,2,5.1,2.7,7.5l2.9-6.5c1-2.2,1.6-4.4,1.8-6.4c0.1-0.4,0-0.8-0.1-1s-0.3-0.4-0.5-0.4c-0.2-0.1-0.3-0.2-0.3-0.2V17    c0.3,0.1,0.8,0.1,1.2,0.1c0.4,0,0.8-0.1,1.2-0.1c1.1,2.6,2.2,5.2,3.1,7.7c0.9,2.5,1.8,5,2.6,7.4l3.2-6.7c0.4-0.8,0.8-1.9,1.3-3.4    s0.7-2.5,0.7-3.1c0-0.3-0.1-0.6-0.1-0.8c-0.1-0.2-0.2-0.4-0.3-0.5c-0.1-0.1-0.3-0.2-0.3-0.2c-0.1-0.1-0.2-0.1-0.3-0.1l0.1-0.3    c1,0,2-0.1,2.8-0.2l0.1,0.4c-0.7,2.2-1.2,3.8-1.5,4.8c-0.3,0.9-0.9,2.2-1.8,3.7c-1.8,3.4-3,5.7-3.7,7c-0.6,1.3-1,2-1,2.1l-0.3-0.2    c-0.2-0.8-0.5-1.6-0.7-2.5c-0.3-0.9-0.5-1.9-0.8-2.7c-0.3-0.9-0.9-2.2-1.6-3.9c-0.2-0.5-0.4-1-0.5-1.3s-0.3-0.7-0.4-1    s-0.3-0.8-0.6-1.4C124.7,21,124.5,20.5,124.3,20.1z"></path>
		<path fill="#FFFFFF" d="M139.9,17.1l0.1-0.3c0.4,0,0.7,0.1,0.8,0.1c0.2,0,0.6-0.1,1-0.1s0.8-0.1,1.2-0.2l0.3,0.2    c0,2.5,0,4.3-0.1,5.5c0,0.6,0.1,1.6,0.1,2.9c0.1,1.8,0.1,4.1,0.1,6.6c0,0.4,0.2,0.7,0.5,1s0.7,0.4,1.1,0.4l-0.3,0.3    c-0.3,0-0.6-0.1-1-0.2c-0.4-0.1-0.8-0.1-0.9-0.1c-0.2,0-0.6,0.1-1.2,0.3l-0.2-0.2V19.6C141.4,18,140.9,17.2,139.9,17.1z"></path>
		<path fill="#FFFFFF" d="M147.3,17l0.1-0.3c0.3,0.1,0.6,0.2,1.1,0.3c0.6,0,1.3-0.2,2-0.5l0.2,0.1c0,1.8,0,3.1,0,4s0.1,2.1,0.1,3.6    s0.1,3,0.1,4.3c0.1,1.4,0.1,2.7,0.2,3.9c1.6,0.2,3,0.4,4.1,0.4c1.4,0,2.9-0.3,4.3-0.7c0.1,0,0.3-0.1,0.3-0.2    c0.1-0.1,0.2-0.3,0.2-0.4c0.1-0.2,0.1-0.4,0.2-0.4l0.2-0.2l-0.6,2.6h-10.6l-0.4-13.9C148.8,18.2,148.3,17.4,147.3,17L147.3,17z"></path>
		<g>
			<g>
				<path fill="#FFFFFF" d="M171.4,32.4v1.3c1.1-0.1,2.1-0.3,3-0.8l1.3-0.7c0.9-0.4,1.6-1,2.2-1.6c0.6-0.6,1.1-1.4,1.4-2.3      c0.3-0.9,0.4-2.1,0.4-3.5c0-1.9-0.4-3.4-1.1-4.6c-0.7-1.2-1.6-2-2.8-2.6c-1.2-0.5-2.5-0.8-4.1-0.8h-0.3V18      c1.9,0.1,3.4,0.7,4.6,1.7c1.2,1.1,1.8,3,1.8,5.6c0,1.9-0.2,3.5-0.7,4.5c-0.4,1-1,1.8-1.9,2.1c-0.8,0.3-1.8,0.5-3,0.4L171.4,32.4      z"></path>
				<path fill="#FFFFFF" d="M171.4,18v-1.2H167c-1,0.3-2.2,0.6-3.5,0.6c-0.5-0.1-1.1-0.1-1.7-0.2l-0.2,0.2l0,0      c0.5,0,0.9,0.2,1.1,0.3c0.2,0.2,0.4,0.4,0.5,0.7c0.1,0.3,0.1,0.7,0.1,1.1V33l0.4,0.3c0.8,0,1.9,0.1,3.5,0.1      c1.5,0.1,2.7,0.1,3.5,0.1c0.2,0,0.5,0,0.8,0v-1.3l-6.4-0.3V18h5.9C171.1,18,171.2,18,171.4,18z"></path>
			</g>
		</g>
	</g>
</g>
<g>
	<path fill="#FFFFFF" d="M12.6,25.6l-0.8,2.4c-0.3,0.9-0.6,1.7-0.8,2.2c-0.2,0.5-0.3,0.9-0.2,1.2c0,0.3,0.2,0.5,0.5,0.6   c0.3,0.1,0.7,0.2,1.4,0.2l0.5,0.1l0.1,0.2H7.7l0.1-0.2l0.5-0.1c0.4-0.1,0.8-0.1,1.1-0.2s0.5-0.3,0.7-0.6c0.2-0.3,0.4-0.7,0.7-1.3   c0.2-0.6,0.5-1.3,0.9-2.3l3-8.3l-0.3-0.8c0.7-0.2,1.3-0.5,1.6-1c0.4-0.5,0.7-1.1,1.1-1.9h0.7l4.6,12.9c0.3,0.7,0.5,1.3,0.7,1.7   c0.2,0.4,0.4,0.8,0.6,1c0.2,0.2,0.4,0.4,0.6,0.5s0.4,0.2,0.7,0.2l0.7,0.1l0,0.2h-8.8l0.1-0.2l0.6-0.1c0.6-0.1,1-0.2,1-0.5   c0.1-0.3,0-0.8-0.3-1.6l-1.6-4.5H12.6z M16.6,25.3l-1.9-5.4h0l-2,5.4H16.6z"></path>
	<path fill="#FFFFFF" d="M26.1,32.2l1-0.1c0.4-0.1,0.8-0.1,0.9-0.2c0.2-0.1,0.3-0.2,0.3-0.2V16.9c0-0.1,0-0.1,0-0.1   c0,0-0.1-0.1-0.2-0.1c-0.1,0-0.2-0.1-0.4-0.1c-0.2,0-0.4-0.1-0.8-0.1l-0.7-0.1L26,16.3l8.4-0.1c2.3,0,4,0.3,5.2,0.9   c1.2,0.6,1.7,1.6,1.7,3c0,1-0.4,1.8-1.1,2.5c-0.7,0.7-1.7,1.2-2.9,1.4l3.1,5.1c0.4,0.6,0.7,1.1,0.9,1.4c0.2,0.4,0.5,0.7,0.7,0.9   s0.4,0.4,0.7,0.5c0.2,0.1,0.5,0.2,0.8,0.2l0.2,0l0.1,0.2h-6.3l-0.2-0.5l-3.9-7.6c-0.2,0-0.4-0.1-0.6-0.1c-0.2,0-0.4-0.1-0.5-0.2   v7.7c0,0.1,0,0.1,0,0.1c0,0,0.1,0.1,0.2,0.1c0.1,0,0.2,0.1,0.4,0.1c0.2,0,0.4,0.1,0.8,0.1l0.9,0.1l0.1,0.2H26L26.1,32.2z    M32.9,23.8c1.3,0,2.3-0.3,3-0.9c0.7-0.6,1.1-1.5,1.1-2.7c0-1.1-0.3-1.9-1-2.6c-0.7-0.6-1.6-0.9-2.8-1h-0.8v7.2c0.1,0,0.1,0,0.2,0   C32.7,23.8,32.8,23.8,32.9,23.8z"></path>
	<path fill="#FFFFFF" d="M53.5,32.6c-1.5,0-2.8-0.2-4-0.7c-1.2-0.4-2.2-1-3-1.8s-1.4-1.6-1.9-2.6c-0.4-1-0.6-2-0.6-3.1   c0-1.1,0.2-2.2,0.6-3.2s1-1.9,1.8-2.7c0.8-0.8,1.8-1.4,3.1-1.9c1.2-0.5,2.6-0.7,4.2-0.7c0.8,0,1.5,0.1,2.2,0.3   c0.7,0.2,1.2,0.4,1.7,0.6l1.8-0.4l0.2,5.3h-0.2l-2.8-4.8c-0.2-0.1-0.6-0.3-1.1-0.4c-0.5-0.1-1.1-0.2-1.8-0.2   c-0.8,0-1.6,0.2-2.2,0.6c-0.7,0.4-1.2,0.9-1.6,1.7c-0.4,0.7-0.8,1.6-1,2.6c-0.2,1-0.4,2.1-0.4,3.3c0,1.2,0.1,2.3,0.4,3.3   c0.3,1,0.6,1.8,1.1,2.5c0.5,0.7,1,1.2,1.6,1.6s1.3,0.5,2,0.5c1.4,0,2.5-0.3,3.4-1c0.9-0.7,1.6-1.6,2.2-2.8l0.9-2h0.2l-0.8,5   l-0.8,0.1c-0.2,0.1-0.5,0.2-0.9,0.3s-0.8,0.2-1.3,0.3c-0.5,0.1-0.9,0.2-1.4,0.2C54.4,32.6,54,32.6,53.5,32.6z"></path>
	<path fill="#FFFFFF" d="M65.1,32.2l1-0.1c0.4,0,0.7-0.1,0.9-0.2c0.2-0.1,0.3-0.2,0.3-0.3V16.5h-0.6c-0.7,0.1-1.2,0.2-1.8,0.6   c-0.5,0.3-1,0.7-1.5,1.1c-0.4,0.4-0.8,0.9-1.1,1.4c-0.3,0.5-0.5,0.9-0.7,1.2l-0.2,0.4h-0.2l0.6-4.9H77l0.3,4.9h-0.2L77,20.8   c-0.2-0.3-0.4-0.7-0.7-1.2c-0.3-0.5-0.7-1-1.1-1.4c-0.4-0.5-0.9-0.8-1.4-1.2c-0.5-0.3-1.1-0.5-1.7-0.5h-0.6v15.2   c0,0.1,0.1,0.2,0.2,0.2c0.2,0,0.6,0.1,1.2,0.2l0.7,0.1l0.1,0.2H65L65.1,32.2z"></path>
	<path fill="#FFFFFF" d="M78.9,32.2l1-0.1c0.4,0,0.7-0.1,0.9-0.2c0.2-0.1,0.3-0.2,0.3-0.3V16.9c0-0.1,0-0.1-0.1-0.1   c0,0-0.1-0.1-0.2-0.1c-0.1,0-0.2-0.1-0.4-0.1c-0.2,0-0.4-0.1-0.8-0.1l-0.7-0.1l-0.1-0.2h8.7l-0.1,0.2l-1,0.1   c-0.4,0-0.7,0.1-0.9,0.2c-0.2,0.1-0.3,0.2-0.3,0.3v14.7c0,0.1,0.1,0.2,0.3,0.2c0.2,0,0.6,0.1,1.2,0.2l0.7,0.1l0.1,0.2h-8.6   L78.9,32.2z"></path>
	<path fill="#FFFFFF" d="M98.2,32.6c-1.5,0-2.8-0.2-4-0.7c-1.2-0.4-2.2-1-3-1.8s-1.4-1.6-1.9-2.6c-0.4-1-0.6-2-0.6-3.1   c0-1.1,0.2-2.2,0.6-3.2s1-1.9,1.8-2.7c0.8-0.8,1.8-1.4,3.1-1.9c1.2-0.5,2.6-0.7,4.2-0.7c0.8,0,1.5,0.1,2.2,0.3   c0.7,0.2,1.2,0.4,1.7,0.6l1.8-0.4l0.2,5.3h-0.2l-2.8-4.8c-0.2-0.1-0.6-0.3-1.1-0.4c-0.5-0.1-1.1-0.2-1.8-0.2   c-0.8,0-1.6,0.2-2.2,0.6c-0.7,0.4-1.2,0.9-1.6,1.7c-0.4,0.7-0.8,1.6-1,2.6c-0.2,1-0.4,2.1-0.4,3.3c0,1.2,0.1,2.3,0.4,3.3   c0.3,1,0.6,1.8,1.1,2.5c0.5,0.7,1,1.2,1.6,1.6s1.3,0.5,2,0.5c1.4,0,2.5-0.3,3.4-1c0.9-0.7,1.6-1.6,2.2-2.8l0.9-2h0.2l-0.8,5   l-0.8,0.1c-0.2,0.1-0.5,0.2-0.9,0.3s-0.8,0.2-1.3,0.3s-0.9,0.2-1.4,0.2C99.1,32.6,98.6,32.6,98.2,32.6z"></path>
	<path fill="#FFFFFF" d="M111.8,19.6c-0.3-0.6-0.5-1.2-0.7-1.6c-0.2-0.4-0.4-0.7-0.6-0.9c-0.2-0.2-0.4-0.4-0.6-0.5   c-0.2-0.1-0.4-0.1-0.7-0.2l-0.5-0.1l-0.1-0.2h8.5l-0.1,0.2l-0.8,0c-0.4,0-0.6,0.1-0.8,0.1c-0.2,0.1-0.3,0.1-0.3,0.2   c-0.1,0.1-0.1,0.2,0,0.3s0.1,0.3,0.2,0.5l4,9.7h0.1l2.6-6.7l-0.4-1.1c-0.2-0.6-0.4-1-0.6-1.4s-0.3-0.7-0.5-0.9   c-0.2-0.2-0.4-0.4-0.5-0.5c-0.2-0.1-0.4-0.2-0.6-0.2l-0.7-0.1l-0.1-0.2h8.9l-0.1,0.2l-0.8,0c-0.7,0-1.1,0.1-1.2,0.3   c-0.2,0.2-0.1,0.5,0.1,1.1l3.3,9.2h0.1l2.3-6.3c0.3-0.8,0.6-1.5,0.7-2s0.3-0.9,0.2-1.3c0-0.3-0.2-0.5-0.5-0.7   c-0.3-0.1-0.8-0.3-1.5-0.3l-0.5-0.1l-0.1-0.2h5.6l-0.1,0.2l-0.4,0.1c-0.5,0.1-0.9,0.1-1.2,0.3s-0.5,0.3-0.7,0.6   c-0.2,0.3-0.4,0.7-0.6,1.2c-0.2,0.5-0.5,1.2-0.8,2.1l-4.5,12h-0.4L122.2,21h0l-4.6,11.8h-0.4L111.8,19.6z"></path>
	<path fill="#FFFFFF" d="M134.9,32.2l1-0.1c0.4,0,0.7-0.1,0.9-0.2c0.2-0.1,0.3-0.2,0.3-0.3V16.9c0-0.1,0-0.1-0.1-0.1   c0,0-0.1-0.1-0.2-0.1c-0.1,0-0.2-0.1-0.4-0.1s-0.4-0.1-0.8-0.1l-0.7-0.1l-0.1-0.2h8.7l-0.1,0.2l-1,0.1c-0.4,0-0.7,0.1-0.9,0.2   c-0.2,0.1-0.3,0.2-0.3,0.3v14.7c0,0.1,0.1,0.2,0.3,0.2c0.2,0,0.6,0.1,1.2,0.2l0.7,0.1l0.1,0.2h-8.6L134.9,32.2z"></path>
	<path fill="#FFFFFF" d="M144.5,32.2l1-0.1c0.4-0.1,0.8-0.1,0.9-0.2s0.3-0.1,0.3-0.2V16.9c0-0.1,0-0.1,0-0.1c0,0-0.1-0.1-0.2-0.1   c-0.1,0-0.2-0.1-0.4-0.1c-0.2,0-0.4-0.1-0.8-0.1l-0.7-0.1l-0.1-0.2h8.9l-0.1,0.2l-1.2,0.1c-0.3,0-0.6,0.1-0.8,0.2   c-0.2,0.1-0.3,0.2-0.3,0.3v15l1.3,0.2c0.5,0,1.1-0.1,1.6-0.3c0.5-0.2,1.1-0.5,1.6-1c0.5-0.4,1.1-1,1.6-1.8c0.5-0.7,1-1.6,1.6-2.7   l0.2-0.3h0.2l-0.8,6.3h-13.5L144.5,32.2z"></path>
	<path fill="#FFFFFF" d="M159.8,32.2l1-0.1c0.4-0.1,0.8-0.1,0.9-0.2s0.3-0.1,0.3-0.2V16.9c0-0.1-0.1-0.1-0.3-0.2   c-0.2,0-0.6-0.1-1.2-0.2l-0.7-0.1l-0.1-0.2h4.4c0.5,0,1.1,0,1.6,0c0.5,0,1,0,1.4,0c0.4,0,0.7,0,0.9,0s0.3,0,0.2,0   c2.9,0,5.1,0.7,6.5,2s2.2,3.3,2.2,6c0,1.1-0.2,2.1-0.7,3.1c-0.5,1-1.1,1.8-1.9,2.6c-0.8,0.7-1.8,1.3-2.8,1.7   c-1.1,0.4-2.2,0.6-3.4,0.6h-8.4L159.8,32.2z M169.8,31.5c0.6-0.4,1.1-0.9,1.5-1.6c0.4-0.7,0.7-1.4,0.9-2.3c0.2-0.9,0.3-1.8,0.3-2.8   c0-5.4-1.7-8.1-5.1-8.1h-1.3v15.1l1.7,0.4C168.6,32.1,169.2,31.9,169.8,31.5z"></path>
</g>
</svg>
