<svg xmlns="http://www.w3.org/2000/svg" xmlns:xlink="http://www.w3.org/1999/xlink" version="1.1" id="Layer_1" x="0px" y="0px" width="100px" height="100px" viewBox="0 0 100 100" enable-background="new 0 0 100 100" xml:space="preserve" class="svg-raw replaced-svg">
<g>
	<g>
		<g>
			<path fill="#FFFFFF" d="M17.018,90.311c0-0.119,0-0.18,0-0.356c0-0.12-0.179,0-0.06,0.117L17.018,90.311z"></path>
			<path fill="#FFFFFF" d="M13.571,88.229l1.664-0.119c0.95-0.535,1.841-1.13,2.081-2.376c0-0.237,0-0.713,0-1.131l-0.714-1.187     l-0.417-0.476c-0.118,0-0.238-0.06-0.238-0.06c-0.119,0-0.177,0-0.177-0.179l-3.685-3.091c-0.535,0-0.594-0.533-1.07-0.771     c-1.544-1.19-2.555-2.854-4.457-2.675C6.439,76.346,6.261,76.762,6.083,77c-0.119,1.542,0,2.969,0.416,4.336l0.713,1.844     c0.059,0.237,0.356,0.476,0.356,0.771c0.059,0.118,0.296,0.118,0.356,0.178l0.713,1.01c0,0.061,0.059,0.12,0.178,0.358     c0,0,0.06,0.058,0.06,0.118c0.95,1.127,2.139,1.96,3.564,2.495C12.917,88.11,13.333,88.229,13.571,88.229z"></path>
			<path fill="#FFFFFF" d="M14.997,66.184c0.95,0,1.842-0.416,2.793-0.534c0.892-0.356,1.426-0.654,1.782-1.189     c0.061,0,0.178-0.061,0.239-0.061c0.653-0.415,0.891-1.129,1.544-1.662c0.475-1.308,0.298-2.675,0.06-3.982     c-0.713-1.724-2.377-2.852-3.685-3.921l-0.654-0.3c0-0.236-0.237-0.236-0.237-0.354c-0.238-0.415-0.594-0.653-0.892-1.01     c-0.415-0.773-0.712-1.485-0.891-2.021c-0.831-2.673-0.297-5.764,0.357-8.259c0-0.297,0-0.476,0.178-0.655l1.129-2.674     c0.118-0.119,0.118-0.119,0.237-0.119l1.248-1.961c0.714-0.833,1.605-2.317,2.912-2.852l1.545-1.07     c0.059-0.059,0.059-0.178,0.356-0.297c0.476,0,1.069-0.653,1.486-1.188c0.535-0.773,0.238-1.664,0-2.615     c-0.773-1.188-2.08-1.902-3.566-2.436c-1.307-0.119-2.496-0.179-3.803,0.178c-0.951,0-1.663,0.594-2.614,0.594     c-0.356,0.06-0.476,0.298-0.833,0.298l-3.802,2.138c-0.061,0-0.18,0.179-0.18,0.179l-2.733,2.318l-1.01,1.188     c-0.713,0.535-1.426,1.367-2.021,2.02c-0.06,0.298-0.118,0.357-0.178,0.476L2.815,37.6l-1.249,2.08l-0.476,0.892     c-0.059,0.475-0.416,0.951-0.416,1.427C0.2,42.592,0.378,43.246,0.2,43.899c-0.475,2.615,0,5.348,0.357,8.023     c-0.12,0.416,0.178,0.712,0.178,1.366c0.356,0.713,0.416,1.365,0.772,1.962c0.535,1.781,1.426,3.269,2.496,4.634     c0.594,0.773,1.546,1.664,2.199,2.379c0.059,0.059,0.237,0.236,0.237,0.236c1.069,1.129,2.555,1.9,4.279,2.614     c0.951,0.238,1.902,0.654,3.09,0.952C14.165,66.065,14.521,66.065,14.997,66.184z"></path>
			<path fill="#FFFFFF" d="M4.479,33.261c0.06,0,0.06,0,0.119,0l0.536-0.415c1.128-1.427,3.03-3.388,4.754-4.338     c0.237-0.058,0.415-0.058,0.474-0.12c0.595-0.594,1.368-0.712,2.08-1.188c0.713,0.118,0.892-0.476,1.604-0.476     c0.357-0.058,0.417-0.356,0.951-0.356l0.417-0.593c0.534-2.081,0.297-4.219,0.891-6.358c0.297-0.833,0.297-1.605,0.714-2.2     c0.237-0.831,0.712-1.484,1.307-2.081c0.119-0.059,0.178-0.237,0.297-0.237l0.119-0.296c0.118-0.06,0.178-0.06,0.297-0.119     c0.119-0.119,0.119-0.179,0.177-0.238c0.654-0.535,1.249-1.189,1.961-1.485c0.356-0.298,0.833-0.357,0.952-0.713     c0.891-0.297,1.367-0.476,2.139-0.832c1.841-0.06,4.337,0,5.408-1.665c0.118-0.119,0.118-0.177,0.118-0.177     c0.475-1.725-0.475-2.972-1.724-4.042c-2.02-1.842-5.05-2.199-7.725-2.318c-1.842,0-3.744,0.416-5.289,0.951     c-0.356,0.178-0.891,0.178-1.129,0.356c-0.95,0.535-1.783,0.952-2.674,1.427c-2.377,1.128-4.16,3.149-5.824,4.753     c-1.546,2.138-2.853,4.16-3.803,6.478c-0.238,1.07-0.535,1.783-0.535,2.792c0,0.06-0.119,0.117-0.178,0.117     c0,0.597-0.238,1.191-0.06,1.785c-0.119,2.614,0.238,5.169,1.189,7.784c0.416,0.951,0.593,2.08,1.129,2.852     c0.237,0.417,0.475,0.774,0.772,0.951c0.119,0,0.179,0,0.417,0.06L4.479,33.261z"></path>
		</g>
		<path fill="#FFFFFF" d="M53.979,87.992c1.962,0.237,4.16-0.595,5.765-1.546c1.011-1.009,2.08-1.782,2.675-2.853    c0,0,0.356-0.118,0.356-0.414l0.118-0.238l1.367-2.199c0.653-1.781,1.486-3.98,0.118-5.823c-0.118-0.298-0.831-0.298-1.129,0    c-0.475,0.118-0.95,0.417-1.247,0.654c-0.892,0.653-1.783,1.427-2.496,2.138l-3.625,2.854l-0.356,0.355    c-0.118,0-0.297,0.061-0.356,0.297l-1.13,0.773c-0.06,0.06-0.06,0.177-0.237,0.237c-0.771,0.416-1.426,1.07-2.139,2.02    c-0.179,0.892-0.06,1.962,0.237,2.676c0.178,0.119,0.416,0.475,0.595,0.594L53.979,87.992z"></path>
		<path fill="#FFFFFF" d="M48.928,65.53c2.556,0.179,4.933-0.952,7.013-1.902c0-0.058,0.06-0.058,0.178-0.238    c0.298,0,0.417-0.177,0.417-0.238c0.771-0.235,1.307-1.069,1.96-1.543c0.654-0.536,1.248-1.249,1.842-1.663    c0.298-0.181,0.298-0.478,0.417-0.536l1.782-2.26l0.475-0.89l0.298-0.892c0.179-0.179,0.297-0.179,0.416-0.237    c0.178-0.597,0.892-1.308,0.951-2.141c0.416-0.296,0.416-0.832,0.534-1.128c1.07-3.507,1.368-7.073,0.773-10.697    c-0.119-1.546-0.773-2.733-1.01-4.22l-2.438-4.516c-0.951-1.188-2.317-2.199-3.387-3.269l-2.318-1.366    c-0.771-0.713-1.663-0.833-2.496-1.188c-0.475,0-1.01,0-1.306-0.238c0,0-0.238,0-0.298,0s-0.179,0-0.237-0.059h-4.16l-3.09,0.653    c-0.535,0.595-1.427,0.595-1.962,1.13c-1.307,0.891-2.139,2.02-2.257,3.564c0.178,0.713,0.416,1.248,0.773,1.545    c0,0.059,0.059,0.059,0.059,0.178c0.06,0.059,0.119,0.059,0.298,0.059c0,0.061,0.059,0.119,0.179,0.238    c0.059,0.178,0.356,0.238,0.474,0.238l3.091,1.189l2.852,1.723c0,0.06,0,0.238,0.119,0.416c0.059,0,0.179,0,0.237,0    c0.06,0.118,0.06,0.178,0.119,0.298c0.119,0.059,0.237,0.059,0.417,0.118c2.021,2.793,1.604,7.13,0.356,10.4    c-0.595,1.248-1.129,2.673-1.724,3.803l-1.545,2.317c-0.119,0.179-0.119,0.236-0.238,0.236l-0.594,0.596    c-0.654,1.01-1.07,2.138-1.308,3.327l-0.06,2.495c0.297,1.188,0.416,2.794,1.724,3.389c0.059,0.117,0.059,0.237,0.178,0.355    l0.832,0.417l0.417,0.118c0.297,0.18,0.297,0.298,0.475,0.358L48.928,65.53z"></path>
		<path fill="#FFFFFF" d="M61.883,29.34l0.06-0.119c0.237-0.119,0.356-0.238,0.535-0.416c0.415-1.13,0.533-2.378,0.831-3.686    c0.179-2.435,0.238-4.575-0.356-6.893c-0.355-0.891-0.355-1.664-0.772-2.495c-0.237-0.715-0.416-1.011-0.476-1.784    c-0.238-0.238-0.356-0.772-0.534-1.129c-0.477-0.712-1.01-1.426-1.545-2.139c-0.357-0.535-0.772-1.01-1.248-1.604    c-0.417-0.891-1.665-1.841-2.437-2.377c-0.534-0.356-0.832-0.773-1.367-1.01c-0.772-0.476-1.426-0.594-2.198-1.188    c-4.101-1.189-8.617-1.486-12.302,0.179c-0.237,0.237-0.298,0.415-0.535,0.415c-0.236,0.119-0.296,0.238-0.415,0.298    c-0.06,0.178-0.237,0.357-0.476,0.476c-0.475,0.712-0.951,1.901-0.535,3.03c0.06,0.06,0.06,0.178,0.178,0.357    c0.238,0.296,0.654,0.89,1.248,1.068c1.011,0.417,2.14,0.417,3.15,1.011c0.535,0,0.593,0.476,1.128,0.476    c1.724,1.604,3.328,3.566,4.338,5.883c0.179,0.535,0.357,1.248,0.594,1.783c0.119,0.594,0.298,1.129,0.298,1.724    c0.356,1.07,0,2.138,0.178,3.268l2.377,0.059l3.804,1.07c2.436,0.951,4.337,2.139,6.357,3.744H61.883z"></path>
	</g>
	<g>
		<path fill="#FFFFFF" d="M75.016,97.737l2.02-1.426l0.476-1.249c1.366-0.534,2.021-1.663,2.614-2.911    c0.595-1.129,0.238-2.377,0.059-3.506c-0.178-0.416-0.652-0.773-1.307-0.891c-1.129,0.117-1.842,0.475-2.791,0.831    c0,0.06-0.119,0.06-0.18,0.179l-2.91,1.664c-0.061,0.059-0.119,0.238-0.179,0.297l-1.843,1.01l-0.594,0.653l-0.416,0.833    l1.188,2.495l0.713,0.655L75.016,97.737z"></path>
		<path fill="#FFFFFF" d="M74.836,97.203l0.833-0.179c0.237-0.179,0.298-0.475,0.713-0.594l0.595-1.546    c0.118-0.118,0.236-0.238,0.534-0.356c0.237-0.237,0.297-0.535,0.772-0.593c0.475-0.714,1.13-1.248,1.486-2.259    c0.475-1.01,0.118-2.081-0.238-3.031c-1.129-0.713-2.496,0-3.445,0.476l-4.755,3.149c-0.298-0.06-0.356,0.238-0.594,0.297    c-0.119,1.368,0.475,2.437,1.486,3.209C73.114,96.431,74.005,96.667,74.836,97.203z"></path>
		<path fill="#FFFFFF" d="M85.177,83.772L86.9,83.18c1.96-1.368,2.732-4.517,2.971-7.131c0-0.299-0.06-0.417-0.179-0.594    l0.476-2.021c-1.664-1.188-3.625-2.615-4.933-4.457c-0.059-0.297-0.118-0.476-0.356-0.594l-0.476-0.714l-3.149-2.853    c-1.484-1.366-4.041-0.95-5.942-1.842c-2.376-0.356-4.635,0.357-7.189,0.713c-2.258,0.652-4.517,1.486-6.061,3.149    c-0.417,0.416-0.714,0.773-1.13,1.13c-0.595,1.248-1.129,2.317-1.782,3.565c-0.595,2.079-1.427,3.624-2.675,4.992    c-0.653,0.712-0.534,1.603-0.653,2.494c0.297,1.069,0.653,2.021,1.604,2.674c0.892,0.475,1.783,0.06,2.556-0.297    c0.06-0.06,0.179-0.119,0.298-0.237l0.949-0.476l0.654-0.477c0.714-0.889,0.714-2.436,0.892-3.682    c0.178-0.298,0.475-0.476,0.831-0.714c1.189,0.416,2.141,2.316,3.507,1.604c0.356-0.178,0.653-0.357,0.892-0.476    c0.118-0.058,0.178-0.177,0.356-0.414c1.604-1.188,3.803-1.188,5.882-1.308c1.427,0.415,2.971,0,4.101,0.533    c0.356,0.417,0.832,0.714,0.892,1.012c-0.238,2.257-0.417,4.574,1.545,5.823c0.236,0.059,0.297,0.118,0.297,0.118L85.177,83.772z"></path>
		<path fill="#FFFFFF" d="M84.226,83.18l2.08-0.298c1.545-0.952,2.198-2.794,2.675-4.755c0-1.603,0.356-2.91,0.475-4.337    c-0.297-0.356-0.773-0.714-1.426-0.95c-0.06-0.119-0.179-0.179-0.238-0.238l-1.961-1.783c-0.535-1.069-1.248-1.842-2.021-2.852    c-0.713-0.714-1.427-1.546-2.377-2.021c-0.06-0.058-0.179-0.178-0.238-0.236c-0.118-0.237-0.415-0.237-0.772-0.416    c-0.059-0.119-0.059-0.238-0.238-0.417c-1.603-0.536-3.564-0.832-5.168-1.188c-0.536,0-0.773-0.06-1.249,0l-0.595-0.179    c-2.911,0.535-6.298,0.595-8.912,2.081c-0.06,0.06-0.119,0.237-0.298,0.355c-0.237,0.06-0.415,0.179-0.533,0.356    c-0.061,0.119-0.238,0.18-0.418,0.237c-0.059,0.12-0.236,0.12-0.296,0.358l-0.416,0.475c0,0.297-0.356,0.535-0.595,0.595    c-1.129,1.424-1.604,3.625-2.555,5.347c-0.416,2.437-3.328,3.923-2.496,6.419c0.297,0.355,0.534,0.594,0.653,0.95    c0.179,0.118,0.416,0.476,0.832,0.653l1.843-0.653c0.118-0.061,0.298-0.179,0.355-0.295c0-0.062,0.238-0.182,0.477-0.182    c0.652-0.356,1.01-1.127,1.248-2.079c-0.179-1.07,0.237-1.96,0.653-2.733l1.842,0.062c0.06,0.355,0.476,0.414,0.772,0.712    c0,0,0,0.06,0.06,0.179c0.179,0,0,0.179,0.297,0.118l0.713,0.417c2.021-0.832,4.041-2.558,6.773-2.14    c1.783-0.061,3.566-0.061,5.171,0.178c0.06,0.118,0.178,0.298,0.415,0.237c0.655,0.417,1.248,0.772,1.426,1.605    c0,1.365-1.009,2.912-0.059,4.039c0.297,0.535,0.595,1.011,1.129,1.309L84.226,83.18z"></path>
		<path fill="#FFFFFF" d="M53.562,72.424l1.427-0.356c0.595-0.357,0.951-0.951,0.714-1.783c-1.07-1.308-2.021-2.615-3.388-3.982    c-0.534-0.297-0.832-0.712-1.308-1.068l-1.248,0.118c-0.298,0.416,0,1.069,0,1.546l0.595,0.771l1.367,3.031l1.188,1.367    C53.267,72.008,53.325,72.304,53.562,72.424z"></path>
		<path fill="#FFFFFF" d="M53.92,71.71l1.129-0.594c0-0.06,0.06-0.179,0.06-0.298l-1.546-2.139c-0.178-0.06-0.237-0.357-0.356-0.713    l-2.437-1.962c-0.179,0-0.415,0-0.415,0.297l1.367,3.089c0.06,0.06,0.178,0.18,0.415,0.358l0.773,1.485l0.891,0.536L53.92,71.71z"></path>
		<path fill="#FFFFFF" d="M91.654,67.253c1.188,0,2.14-1.069,2.971-1.901c0.119-0.118,0.237-0.178,0.416-0.238l1.308-1.247    c1.188-1.725,2.377-3.625,1.901-6.062c-0.119-0.237-0.179-0.417-0.179-0.596l0.893-1.604l-0.119-0.713l-0.714-0.772h-1.366    c-0.237,0.296-0.594,0.533-0.772,0.892v0.594l-1.664,1.129c-1.069,0.892-2.259,1.784-2.912,3.388    c-0.535,1.07-0.417,2.199-1.069,3.328c-0.297,1.426,0.772,2.317,0.652,3.447c0,0.236,0.238,0.177,0.477,0.355H91.654z"></path>
		<path fill="#FFFFFF" d="M91.893,66.539c0.177,0,0.296-0.118,0.475-0.118c1.366-0.771,2.614-2.021,3.922-3.446    c0.831-1.427,1.545-2.733,1.486-4.456c-0.238-0.893-0.833-1.131-1.188-1.784c0-0.059,0.118-0.177,0.178-0.237    c0.178,0,0.297,0,0.476,0c0.535-0.119,0.594-0.653,0.95-1.01c0.06-0.237-0.06-0.356-0.119-0.595c-0.534,0-1.129,0.238-1.307,0.713    v0.654l-1.842,0.771c-0.357,0.238-0.714,0.595-1.309,0.952l-1.129,1.247l-0.534,1.248c-0.297,1.01-0.476,1.901-0.952,2.972    c-0.178,1.068,0.357,1.724,0.477,2.733c0.179,0.298,0.179,0.179,0.238,0.355C91.714,66.539,91.832,66.539,91.893,66.539z"></path>
		<path fill="#FFFFFF" d="M60.635,64.044l0.594-0.356c0.179-0.179,0.356-0.355,0.654-0.475c0.892-2.318,1.308-5.646-0.417-7.726    c-1.306-1.427-2.316-3.329-4.337-3.149c-0.832,0.296-1.308,0.713-1.783,1.129c-1.188,1.844-1.426,4.635-0.297,6.774    c0.237,0.06,0.297,0.237,0.297,0.416c0.951,1.484,2.377,2.494,3.981,3.269L60.635,64.044z"></path>
		<path fill="#FFFFFF" d="M59.862,63.332h0.653c0.178,0,0.178-0.298,0.298-0.476c0.118-0.06,0.179-0.119,0.237-0.238    c0.178-0.06,0.356-0.355,0.356-0.714l0.476-0.712c0.179-1.546,0.238-3.209-0.476-4.577c-0.832-1.484-1.961-2.674-3.388-3.625    c-1.188,0.061-2.198,0.951-2.674,1.902c-0.653,1.902-0.416,4.279,0.654,5.765l1.426,1.425L59.862,63.332z"></path>
		<path fill="#FFFFFF" d="M83.928,57.864l3.21-2.554c0.059-0.061,0.236-0.18,0.356-0.18l0.713-0.715l0.773-1.246    c0.475-1.665,0.652-3.744-0.12-5.646l-0.415-0.476c-0.179-0.534-0.654-0.594-0.951-1.01c-1.188-0.118-2.615-0.594-3.862,0.178    c-1.485,1.427-1.902,3.21-2.438,5.349c0,1.069,0.238,1.842,0.416,2.911C82.442,55.547,82.442,57.27,83.928,57.864z"></path>
		<path fill="#FFFFFF" d="M69.608,57.626l2.911-1.782c0.891-0.893,1.723-2.14,2.021-3.506c0.713-0.773,0.595-2.021,0.951-3.091    c0.119-1.724-0.476-3.446-1.605-4.458c-1.009-0.712-2.495-1.069-3.921-0.415c-0.179,0.119-0.179,0.237-0.356,0.237    c-1.427,2.556-0.951,5.706-1.367,8.559c0.179,1.483-0.06,2.852,0.653,4.039c0,0.179,0.298,0.358,0.654,0.417H69.608z"></path>
		<path fill="#FFFFFF" d="M83.632,56.911c1.604-0.414,2.437-1.899,3.921-2.791c1.011-1.486,1.605-3.506,1.011-5.348    c-0.238-0.297-0.238-0.712-0.356-0.951c-0.178,0-0.237-0.119-0.416-0.298c-0.179-0.476-0.595-0.594-0.891-1.01l-2.854,0.178    c-1.723,1.664-2.317,4.813-1.723,7.667c0.476,0.952,0.772,1.604,1.188,2.553H83.632z"></path>
		<path fill="#FFFFFF" d="M69.608,56.734l1.248-0.652l0.891-0.356c0.357-0.179,0.357-0.595,0.772-0.714    c0.298-0.358,0.477-0.951,0.833-1.308c1.127-2.199,1.9-5.17,0.89-7.488c-0.415-0.356-0.89-0.891-1.365-1.248    c-0.179,0.06-0.238,0.06-0.535,0.179c-0.476-0.357-1.13-0.536-1.843-0.357c-0.771,0.179-0.652,1.249-0.95,1.724    c0,0.12,0,0.238,0.06,0.416c-0.772,3.149-0.714,6.477-0.119,9.805H69.608z"></path>
		<path fill="#FFFFFF" d="M54.989,51.447h0.653c0.357-0.476,0.654-1.19,0.535-1.903c-0.356-0.534-0.653-1.01-0.832-1.605    l-0.476-0.058c-0.654,0.474-0.892,1.425-0.594,2.257c0.178,0.475,0.356,0.832,0.534,1.187    C54.87,51.326,54.93,51.326,54.989,51.447z"></path>
		<path fill="#FFFFFF" d="M55.286,50.614c0.06-0.119,0.06-0.297,0.298-0.475c0.059-0.238-0.238-0.238-0.298-0.417l-0.237-0.89    c-0.238,0.238-0.179,0.713-0.238,1.009L55.286,50.614L55.286,50.614z"></path>
		<path fill="#FFFFFF" d="M87.196,44.493c0.416,0.118,0.893-0.06,1.249-0.416c0.236-0.536,0.713-1.249,0.118-1.843    c-0.06-0.296-0.238-0.415-0.356-0.534l-1.486,0.06c-0.236,0.475-0.771,1.249-0.475,1.96    C86.543,44.018,86.721,44.434,87.196,44.493z"></path>
		<path fill="#FFFFFF" d="M87.196,43.72l0.833-0.535l0.06-0.653c-0.119-0.239-0.595-0.357-0.893-0.239    c-0.177,0.239-0.476,0.535-0.476,1.01l0.417,0.416H87.196z"></path>
		<path fill="#FFFFFF" d="M71.153,43.186l0.951-0.534l0.594-0.892v-0.654l-0.475-0.654c-0.418-0.179-1.19-0.474-1.725-0.179    c-0.297,0.654-1.128,1.546-0.652,2.378l1.128,0.534H71.153z"></path>
		<path fill="#FFFFFF" d="M70.677,42.533c0.477,0.119,0.893-0.239,1.129-0.654c0.061-0.179,0.18-0.297,0.299-0.476    c-0.061-0.356-0.535-0.535-0.951-0.535l-0.772,1.13c0,0.177,0,0.296,0.059,0.475C70.499,42.473,70.618,42.473,70.677,42.533z"></path>
	</g>
</g>
</svg>
